<?xml version="1.0" encoding="utf-8"?>
<!-- Generator: Adobe Illustrator 18.1.1, SVG Export Plug-In . SVG Version: 6.00 Build 0)  -->
<svg version="1.1" id="Layer_2" xmlns="http://www.w3.org/2000/svg" xmlns:xlink="http://www.w3.org/1999/xlink" x="0px" y="0px"
	 viewBox="0 0 390.1 412.4" enable-background="new 0 0 390.1 412.4" xml:space="preserve">
<g>
	<path fill="#FFFFFF" d="M388.6,376.1c-4.5-11-21.5-49.3-28-59.8s-22.5-17.8-48-17.8s-237.7,0-246,0S38,303.5,31,315
		S8.1,360.9,2.6,372.7c-5.3,11.4-5.8,39.7,30.2,39.7s304-0.5,330,0S393.1,387.1,388.6,376.1z"/>
	<path fill="#FFFFFF" d="M62.3,273.2c14.5,0,248,0,267.2,0s29.2-16,29.2-29.5s0-200.2,0-214.8S345.5,0,328,0C315.5,0,76.5,0,61,0
		C48.5,0,33.7,12.8,33.8,30.5c0,14,0,202.4,0,214.5C33.8,259.3,47.8,273.2,62.3,273.2z M69.8,60.6C69.7,46.2,84.9,34,95.1,34
		c12.6,0,185.6-1,195.8-1s27.4,13.8,27.4,25.6c0,11.8,0,146.7,0,157.7c0,11-11.1,27-26.8,27s-184.6,0-196.4,0
		c-11.8,0-25.4-16.9-25.4-26.8S69.8,72,69.8,60.6z"/>
	<path fill="#FFFFFF" d="M123,160.2c-2.2,2-3,6.8,3.2,11.2c6.3,4.5,31.3,21.5,63.8,21.5s57-14,67-20.8c10-6.8,7.8-9,6.2-12
		s-5.5-3.5-13.2,2c-7.8,5.5-36,18.5-61,18.5s-47.7-14.4-54.5-18.5C129.1,158.9,125.3,158.2,123,160.2z"/>
	<path fill="#FFFFFF" d="M102,116.1c0,0-1.9,3.3-3.1,5.8c-1.2,2.5-1.2,7.4-1.2,7.4s26.5-20.5,39.5-20.8s37.5,9.5,37.5,9.5
		s-5-12.8-15.5-16.8s-17-5.4-25.3-4.7c-7.5,0.6-20.7,7.1-20.7,7.1s-3-2.8-5.8-3.8c-4.5-1.5-9.5,0.1-9.1,0.1c0,0,3.3,2.3,5.1,4.3
		c1.6,1.8,3.1,4.5,3.1,4.5s-5.7-3.1-9.1-3.4c-3-0.2-7.4,0.9-7.4,0.9s3.6,3.3,7,5.4C100.7,114,102,116.1,102,116.1z"/>
	<path fill="#FFFFFF" d="M279.5,129.4c0,0-0.1-4.8-1.3-7.3s-3.2-5.7-3.2-5.7s1.2-2.1,4.8-4.4c3.4-2.2,6.9-5.6,6.9-5.6
		s-4.4-1-7.4-0.7c-3.4,0.3-9,3.6-9,3.6s1.4-2.7,3-4.6c1.8-2.1,5-4.4,5-4.4c0.3,0-4.7-1.5-9.1,0.1c-2.8,1-5.8,3.9-5.8,3.9
		s-13.3-6.1-20.8-6.6c-8.3-0.5-14.7,1-25.1,5.2c-10.4,4.2-15.1,17.1-15.1,17.1s24.3-10.3,37.3-10.4
		C252.5,109.6,279.5,129.4,279.5,129.4z"/>
</g>
</svg>
